<svg width="512" height="512" viewBox="0 0 512 512" fill="none" xmlns="http://www.w3.org/2000/svg">
  <rect width="512" height="512" rx="64" fill="#6366f1"/>
  <circle cx="256" cy="256" r="160" fill="#ffffff"/>
  <path d="M256 160c-53 0-96 43-96 96s43 96 96 96 96-43 96-96-43-96-96-96zm0 160c-35.3 0-64-28.7-64-64s28.7-64 64-64 64 28.7 64 64-28.7 64-64 64z" fill="#6366f1"/>
  <path d="M256 224c-17.7 0-32 14.3-32 32s14.3 32 32 32 32-14.3 32-32-14.3-32-32-32zm0 48c-8.8 0-16-7.2-16-16s7.2-16 16-16 16 7.2 16 16-7.2 16-16 16z" fill="#6366f1"/>
  <text x="256" y="380" text-anchor="middle" font-family="Arial, sans-serif" font-size="48" font-weight="bold" fill="#6366f1">RS</text>
</svg>

