<svg width="192" height="192" viewBox="0 0 192 192" fill="none" xmlns="http://www.w3.org/2000/svg">
  <rect width="192" height="192" rx="24" fill="#6366f1"/>
  <circle cx="96" cy="96" r="60" fill="#ffffff"/>
  <path d="M96 60c-19.9 0-36 16.1-36 36s16.1 36 36 36 36-16.1 36-36-16.1-36-36-36zm0 60c-13.2 0-24-10.8-24-24s10.8-24 24-24 24 10.8 24 24-10.8 24-24 24z" fill="#6366f1"/>
  <path d="M96 84c-6.6 0-12 5.4-12 12s5.4 12 12 12 12-5.4 12-12-5.4-12-12-12zm0 16c-2.2 0-4-1.8-4-4s1.8-4 4-4 4 1.8 4 4-1.8 4-4 4z" fill="#6366f1"/>
  <text x="96" y="140" text-anchor="middle" font-family="Arial, sans-serif" font-size="16" font-weight="bold" fill="#6366f1">RS</text>
</svg>

